<?xml version="1.0" encoding="UTF-8"?>
<svg id="Camada_2" data-name="Camada 2" xmlns="http://www.w3.org/2000/svg" viewBox="0 0 353.55 90.16">
  <defs>
    <style>
      .cls-1 {
        fill: #fff;
      }
    </style>
  </defs>
  <g id="Camada_1-2" data-name="Camada 1">
    <path class="cls-1" d="M215.41.37c20.77-1.92,33.11,21.64,20.02,37.92-3.14,3.9-7.74,4.69-9.93,7.05-2.1,2.27-4.1,8.01-6.26,10.71-.4.5-.74,1.04-1.48,1.04-2.13-.01-6.29-10.11-8.03-11.96-1-1.06-3.2-1.48-4.59-2.4-18.24-11.97-11.39-40.36,10.27-42.36ZM212.51,9.94v8.98c0,.87,2.54,1.22,3.25-.25.42-.87.45-7.11.15-8.13-.47-1.59-3.02-1.84-3.4-.6ZM222.94,9.77l-2.61-.61c-1.17.22-1.26,10.22.02,10.53l2.09-.09.5-9.83ZM208.39,16.8c-.47-.47-1.75-.81-2.41-.41-1.67,1.19,1.42,11.44,4.07,8.06.84-1.07-.92-6.89-1.66-7.64ZM225.09,24.58c3.11,2.91,5.3-6.15,4.69-7.4-2.15-4.41-5.56,5.5-4.69,7.4ZM221.34,23.83c-1.6-1.55-5.08-1.68-6.82-.41-1.11.81-1.2,2.14-2,2.99-1.62,1.73-3.87,1.68-3.55,4.99.56,5.84,15.49,6.44,17.32.77,1.21-3.75-1.47-3.84-3.27-5.76-.7-.75-1.03-1.95-1.67-2.57Z"/>
    <path class="cls-1" d="M88.51,24.16h10V2.46c0-2.59,7.84-2.76,9.52-.92l-.09,54.46c-1.81,1.5-9.43,1.55-9.43-1.18v-21.2h-10v21.2c0,2.65-7.46,2.95-9.05,1.04l-.48-52.44c-.77-4.41,9.53-3.79,9.53-.97v21.69Z"/>
    <path class="cls-1" d="M128.38.34c8.34-1.29,16.49,2.08,17.57,11.16.8,6.64.93,28.33-.06,34.73-2.3,14.75-25.95,14.46-27.84.08-.88-6.7-.87-29.1.09-35.74.74-5.1,5.14-9.45,10.24-10.23ZM130.37,9.8c-1.73.4-3.06,2.48-3.32,4.16-1.32,8.52.92,20.05-.04,28.9.78,6.43,9.08,6.85,9.96-.57.72-6.14.67-20.65.05-26.87-.4-3.98-2.22-6.64-6.64-5.63Z"/>
    <path class="cls-1" d="M164.94,1.29l.12,38.03c1.31,11.2,11.27,11.4,12.89.5l.15-37.75c.75-2.47,8.78-2.75,9.39.42-1.12,13.08,2.07,29.57-1.24,42.12-2.28,8.64-10.16,14.35-19.15,11.63-8.99-2.72-11.15-12.62-11.62-20.83-.62-10.87.43-22.4.12-33.34.79-2.62,7.33-2.03,9.33-.77Z"/>
    <path class="cls-1" d="M19.94,45.17l-9.43-.06c-.43,2.25-.7,10.19-2.62,11.1-2.17,1.03-7.54.46-7.9-2.41L8.24,3.19c.17-.75.38-1.46,1.07-1.93,2.17-1.47,12.05-1.69,13.1.81l8.49,50.91c.1,4.55-8.07,5.25-9.26,1.72-.49-1.46-1.01-9.11-1.69-9.54ZM16.01,18.17c-1.31-.11-.83-.07-.98.75-1.06,5.67-1.81,11.48-2.52,17.2h6s-2.5-17.95-2.5-17.95Z"/>
    <path class="cls-1" d="M257.51,34.63v21.44c-1.95,1.01-8.5,1.81-9.01-.74l.25-53.62c.25-.5.65-.67,1.13-.86,2.37-.96,13.91-.95,16.75-.51,13.19,2.03,15.46,24.68,5.62,31.8-.78.56-4.88,2.5-5.5,2.5h-9.25ZM257.51,25.15c2.91.85,8.73,1.1,10.39-1.86,1.45-2.57,1.89-10.81-.4-12.84-1.72-1.53-8.12-1.92-9.99-.51v15.21Z"/>
    <path class="cls-1" d="M68.91,16.56c-2.1,1.23-6.05,1.63-8.05.15-1.55-1.14.23-5.91-3.2-6.91-4.23-1.24-7.26.8-7.67,5.11-.63,6.6-.64,20.89,0,27.48.41,4.27,3.41,6.36,7.67,5.11,3.36-.98,1.75-5.54,2.97-6.76,2.75-1.45,5.82-1.58,8.44.22,1.06,11.31-7.34,18.54-18.46,15.28-5.65-1.66-9.5-6.52-10.09-12.38-.74-7.4-.67-22.46-.02-29.94,1.65-19.21,31.79-17.97,28.41,2.64Z"/>
    <path class="cls-1" d="M307.76,47.6c2.12.61,2.31,8.26.14,9.15-1.63.67-15.17.58-17.64.33-1.45-.15-3.44-.41-3.28-2.21l.11-53.31c.33-.99,1.73-1.23,2.66-1.34,5.5-.63,12.27.4,17.91.11,2.24.66,1.95,9.38-.4,9.38h-11.25v14.46h8.25c2.02,0,2.49,8.41,0,9.48h-8.25v13.96h11.75Z"/>
    <path class="cls-1" d="M339.94,56c-3.03,1.51-5.8,1.21-8.87,0l-.13-45.5c-.17-.65-.61-.71-1.18-.82-1.93-.36-10.21-.03-11.27-.73-1.41-1.86-1.68-7.89.87-8.65l32.95.36c1.63,1.24,1.6,6.61.22,8.29-1.06.7-9.34.37-11.27.73-.57.11-1.01.17-1.18.82l-.14,45.49Z"/>
    <path class="cls-1" d="M121.01,73.03l1.68-.4c1.36.24,4.21,9.55,4.83,11.37.98.76,4.18-10.32,4.62-10.84l2.88-.13v16.96c-.97-.02-2.55.34-2.93-.82l-.07-6.66-2.74,6.98c-.73.89-2.2.7-2.71-.3l-3.05-7.18v7.98h-2.5v-16.96Z"/>
    <path class="cls-1" d="M281.51,73.03c7.86-2.48,12.11,4.02,7.08,10.13l2.39,6.04-1.23.82c-2.24.21-3.29-4.76-3.76-6.51h-1.48s0,6.48,0,6.48h-3v-16.96ZM284.51,80.51c4.85.83,4.89-5.81,0-4.99v4.99Z"/>
    <path class="cls-1" d="M191.51,73.03c4.77-1.22,9.06-.52,9.04,5.24-.01,3.06-2.01,3.96-2.03,4.97-.03,1.57,2.73,4.64,1.99,6.75l-2.42-.08c-1.08-1.47-1.55-6.71-3.83-6.4l-.25,6.49h-2.5v-16.96ZM194.01,80.51l3.28-.47c.32-.97.56-3.75-.25-4.3l-3.04-.22v4.99Z"/>
    <path class="cls-1" d="M210.4,73.15l2.55,16.02-2.39.77-.55-3.44-2.69-.03-.83,3.5c-1.08.08-2.87.34-2.88-1.1l2.5-14.99c.93-1.69,2.79-1.36,4.29-.73Z"/>
    <path class="cls-1" d="M229.94,73.11l2.53,16.07c-4.16,3.18-1.5-3.35-5.2-2.7-2.01.35-.78,2.62-1.72,3.3-1.12.81-2.59.18-2.51-1.46.22-4.69,2.39-10.36,2.54-15.21h4.36Z"/>
    <path class="cls-1" d="M275.9,73.15l2.55,16.02-2.39.77-.55-3.44-2.69-.03-.83,3.49-2.48.03,2.1-16.11c.93-1.69,2.79-1.36,4.29-.73Z"/>
    <path class="cls-1" d="M259.36,72.63c2-.6,4.42-.07,5.58,1.71,1.62,2.48,1.99,14.57-1.28,15.54-1.03.3-5.19.48-5.58-.72.32-4.47-.67-10.1-.09-14.42.13-.98.29-1.8,1.37-2.12ZM261.01,76.27v10.72l1.75-.5c1.24-3.71.68-7.28-.25-10.97-.38-.27-1.38.36-1.5.75Z"/>
    <path class="cls-1" d="M185.96,73.09l2.52,16.08c-.23.86-1.46,1.01-2.16.77-1.37-.47.14-4.76-4.3-3.46l-.22,3.02c-1.33,1.02-2.83.65-2.75-1.2.21-4.58,2.33-10.16,2.47-14.93.44-1.02,3.52-.71,4.45-.3Z"/>
    <path class="cls-1" d="M248.01,73.03v12.72c0,.14,1.63,1.84,2.19,1.72.41-.09,1.81-1.95,1.81-2.22v-12.22l1.99-.28c.59.38.87.86,1,1.54.47,2.47.13,11.19-1.05,13.39-2.35,4.4-8.94,2.08-8.94-2.43v-12.22h3Z"/>
    <path class="cls-1" d="M145.39,73.66c1.46,1.32,1.48,11.41,1.02,13.48-.92,4.11-7.65,4.08-8.37-.42-.27-1.73-.28-10.27.19-11.72.77-2.37,5.54-2.8,7.16-1.34ZM143.39,86.88c1.01-1.08,1.41-11.39-1.13-11.39-3,0-2.46,15.22,1.13,11.39Z"/>
    <path class="cls-1" d="M170.52,83.51v6.48c-.97-.02-2.55.33-2.93-.82.26-2.6-.79-14.68.42-15.9.86-.87,3.02-.84,4.22-.69,7.43.9,5.86,12.09-1.7,10.93ZM170.51,80.51c3.34.59,4.4-2.02,3.03-4.77l-3.03-.22v4.99Z"/>
    <path class="cls-1" d="M79.06,89.93l-1.05-3.94c-1.86,1.31-1.19,6.07-4.46,3.18-.41-1.44,2.4-5.64,2.4-7.42s-2.38-5.57-2.74-7.7c-.33-1.17,2.17-1.32,2.74-.96l1.82,4.42,1.72-4.78c5.39-.12-.26,6.36-.26,9.02,0,2.23,5.18,8.74-.17,8.18Z"/>
    <path class="cls-1" d="M70.02,75.52h-4s-.01,4.21-.01,4.21l2.55.5.47,2.78h-3s0,3.99,0,3.99l3.54.21.47,2.77-6.53-.22c-.51-.36-.43-.97-.49-1.5-.2-1.69-.16-13.85.27-14.74.83-1.71,8.46-2.02,6.75,2Z"/>
    <path class="cls-1" d="M152.08,76.09c-1.89,2.96,7.67,6.53,4.64,11.86-2.25,3.95-8.2,2.04-7.7-2.44,2.83-1.21,3.35,3.42,5.03,1.26s-3.05-4.91-4.13-6.9c-4.04-7.4,6.62-9.12,7.12-4.57.43,4-3.87-.89-4.95.79Z"/>
    <path class="cls-1" d="M97.88,73.67c.33.33,1.31,2.62,1.14,2.85-2.55,1.5-4.19-3.02-5.5.74,1.41,3.97,6.51,4.95,5.4,9.87-1.04,4.61-8.83,3.35-7.9-1.64,2.38-1.25,3.09,2.23,4.24,1.99,3.44-.71-3.25-6.69-3.69-7.78-2.4-5.93,3.36-9.02,6.31-6.04Z"/>
    <path class="cls-1" d="M111.26,72.53l.75,2.99h-4v14.46h-3v-14.46c-3.71,1.62-5.13-2.99-3.25-2.99h9.5Z"/>
    <path class="cls-1" d="M241.51,87.74c-.54,1.91-4.76,2.67-6.5,2.25l.05-2.45c1.63-.06,3.95-.91,3.95-2.79v-11.47c0-.94,2.5-.94,2.5,0,0,3.05.61,12.3,0,14.46Z"/>
    <path class="cls-1" d="M117.51,73.03v16.96h-3v-16.96c1.11-.38,1.88-.38,3,0Z"/>
    <path class="cls-1" d="M85.01,89.99v-16.96l1.99-.28c.41.28.77.65.91,1.13.28.94.31,14.46.03,15.29-.47,1.16-1.86.8-2.93.82Z"/>
    <path class="cls-1" d="M219.58,29.07c.19.29,3.06.63,3.42,1.82-2.87,2.68-7.09,2-10.46.71v-1.42c.62-.29,3.21-.82,3.39-1.11.63-1.01-.79-4.39,3.36-2.45.45.67-.02,1.98.28,2.45Z"/>
  </g>
</svg>