<?xml version="1.0" encoding="UTF-8"?>
<svg xmlns="http://www.w3.org/2000/svg" version="1.1" viewBox="0 0 800 176.1">
  <defs>
    <style>
      .cls-1 {
        fill: #ff5b2e;
      }
    </style>
  </defs>
  <!-- Generator: Adobe Illustrator 28.7.5, SVG Export Plug-In . SVG Version: 1.2.0 Build 176)  -->
  <g>
    <g id="Camada_2">
      <g>
        <path class="cls-1" d="M464.8,104.8c4.5,3,10.2,5.2,15.6,5.9.8,0,3.1.7,3.4,0,.6-1.5.8-3.1,2.1-4.3,2.2-1.9,5.6,0,8.2-2.9,2.4-2.5,3.2-6.1,3-9.4,0-.3-.2-1.1-.3-1.4-.4-.5-1.2,0-1.6,0-4.5-.6-3.9-2.4-6.3-5.3-2.4-2.8-5.9-4.4-9.5-4.8-.5,0-1.4.3-1.7,0-.3-2.2-1.3-4.6-1.5-6.8,0-.5,0-2.8-.2-2.8-1.6.9-3,1.7-4.4,2.9-6.9,6.4-7.2,13.3-9.8,21.7-.3.8-.9,2.3-.6,3.7.4,1.5,3,3.2,3.6,3.6h0ZM485.9,89.5c.8.2,1.3.9,1.1,1.7-.2.8-.9,1.3-1.7,1.1s-2.7-.9-2.5-1.7c.2-.8,2.3-1.3,3.1-1.1Z"/>
        <path class="cls-1" d="M565.1,74.9c0-35.2-28.7-63.9-63.9-63.9s-63.9,28.7-63.9,63.9,58.3,86.6,63.9,90.4c12.4-10.2,54.2-39.1,62.9-79.2.7-3.7,1-7.5,1-11.2h0ZM501.2,24c28.1,0,51.7,22.8,50.9,50.9-.8,28.1-8.6,30.6-12.5,33.3-3.6-2.6-7.2-5.2-10.6-8.1-2.7-2.3-5.2-4.9-7.7-7.4-4.1-4.2-15.8-15.5-5.4-19.6,5.9-2.3,13.1-.7,18.6-3.7,4.8-2.6,6.4-7.8,7-13,0-.9-.4-1.7-1.3-2-4.5-1.5-9.2-2.8-13.5-4.8-.9-1.7-1.2-3.8-2.1-5.6-3.6-7.5-12.1-9.8-19.7-10.6-2.1-.2-4.2-.4-6.4-.3-2,0-4,.4-5.6,1.6-1.1.8-2.1,1.8-3.1,2.6-1.1.8-2.2,1.5-3.2,2.3-2.8,2.3-5.2,5.2-5.6,9-.3,2.8,2.3,5.2,3.8,7.4,2.5,3.8,6.6,11.9,12.2,7.3,4.2-3.4,3.1-9.4,4.6-14.2.3-1,1-2.4,1.9-2.8-.4,1.4-.9,2.9-1.1,4.4-.6,4.5.5,11.1-3.3,14.3-8.7,7.3-13.9-2.8-18.6-7.9-.2-.2-.4-.5-.7-.5s-1.2,2.5-1.3,2.8c-.5.9-1,1.7-1.5,2.6-.5.8-1,1.6-1.5,2.3-.3.5-.7.8-1,1.3-.3.7-.3,1.5-.1,2.2.2.9,1.2,1.4,2,.9.5-.3.9-.6,1.3-.8.5-.2.9-.5,1.4-.7h.4v.3c-.3,2.2-.6,4.3-.6,6.5s.4,5.3.9,5.9c1.5.4,3.1.4,4.7.9,4.9,1.7,5,4.5,8.2,7.4,1.7,1.6,3.9.3,5.3.9l.4.2c.9.8.6,2.4.8,3.4.3,2.6.4,5.3-.4,7.8-1,3.4-3.7,6.6-7.2,7.3-1.3.3-3.2,0-4.1.7-1.6,1.4.2,1.5,1.2,2.1,2,1.2,2.5,3.7,1.7,6-.4,1.1-.9,2.4-1.6,3.2-.8.8-1.4.9-2.4.5-.2,0-.4-.2-.5-.4-1.1-2.4,3.4-6.7.2-7.1-1.8-.3-2.1,1.4-4,1.3-6.5-.2-14.9-2.1-19.9-6.5-8.7-7.7-12.1-20.4-12.1-32.9,0-28.1,22.8-50.9,50.9-50.9h0l.2.2h0ZM514.7,47c0-.5,2.7-1,3.1-1,1.4,0,1.2,2.6.5,2.9-.4.2-3-1.5-3.5-1.9h0Z"/>
      </g>
      <g>
        <path d="M47,51.4h18.6l32.6,89.3h-21.1l-6.9-20h-27.8l-6.8,20H14.5L47.1,51.4h0ZM66.7,106.5l-10.4-31.6-10.7,31.6h21.1Z"/>
        <path d="M90.5,95.3c0-5.4,1-10.7,3-16s4.9-10.1,8.8-14.3,8.5-7.6,14.1-10.2c5.5-2.6,11.8-3.9,18.9-3.9s15.7,1.8,21.8,5.4c6.2,3.6,10.7,8.3,13.8,14.1l-15.8,11.1c-1-2.3-2.3-4.3-3.8-5.8-1.6-1.5-3.2-2.8-5.1-3.8-1.8-1-3.7-1.6-5.7-2-1.9-.4-3.8-.6-5.7-.6-3.9,0-7.4.8-10.3,2.4s-5.4,3.6-7.3,6.2c-1.9,2.5-3.4,5.4-4.3,8.5-.9,3.2-1.4,6.4-1.4,9.7s.5,6.9,1.6,10.2c1.1,3.3,2.7,6.2,4.7,8.7,2.1,2.5,4.5,4.5,7.4,6s6.1,2.2,9.7,2.2,3.8-.2,5.7-.7c2-.5,3.9-1.2,5.7-2.1,1.8-1,3.5-2.2,5-3.8,1.5-1.5,2.7-3.5,3.6-5.7l16.8,9.9c-1.3,3.3-3.3,6.2-6,8.8-2.6,2.6-5.7,4.8-9.1,6.5-3.4,1.8-7.1,3.1-10.9,4-3.9.9-7.6,1.4-11.3,1.4-6.5,0-12.4-1.3-17.8-4-5.4-2.6-10.1-6.1-14-10.5s-6.9-9.3-9.1-14.8c-2.1-5.5-3.2-11.1-3.2-16.8h.2Z"/>
        <path d="M254,51.4v89.3h-20.6v-36.6h-35.6v36.6h-20.7V51.4h20.6v34.6h35.6v-34.6h20.7Z"/>
        <path d="M302.1,141.4c-6.6,0-12.7-1.3-18.1-3.9s-10.1-6-14-10.2-6.9-9.1-9-14.5-3.2-11.1-3.2-16.8,1.1-11.5,3.3-17c2.2-5.4,5.3-10.2,9.3-14.4,4-4.1,8.7-7.5,14.1-9.9,5.4-2.5,11.4-3.7,17.9-3.7s12.7,1.3,18.1,3.9c5.4,2.6,10.1,6,14,10.3,3.9,4.3,6.8,9.1,8.9,14.6,2.1,5.4,3.1,11,3.1,16.6s-1.1,11.5-3.3,17c-2.2,5.4-5.3,10.2-9.2,14.4-3.9,4.1-8.6,7.5-14.1,10-5.4,2.5-11.4,3.8-17.9,3.8v-.2h.1ZM278.9,96.2c0,3.4.5,6.8,1.5,10s2.5,6.1,4.5,8.6,4.4,4.5,7.4,6c2.9,1.5,6.3,2.3,10.1,2.3s7.4-.8,10.3-2.4,5.4-3.7,7.3-6.2c1.9-2.6,3.4-5.4,4.3-8.7,1-3.2,1.4-6.5,1.4-9.9s-.5-6.8-1.5-10-2.5-6.1-4.5-8.5c-2-2.5-4.5-4.4-7.4-5.9s-6.2-2.2-10-2.2-7.4.8-10.2,2.3c-2.9,1.6-5.3,3.6-7.3,6.1s-3.4,5.4-4.4,8.6-1.4,6.5-1.4,9.9h0Z"/>
        <path d="M389.9,123.1c3.5,0,6.5-.7,8.9-2.2s4.4-3.4,5.9-5.8,2.6-5.2,3.2-8.4c.6-3.1.9-6.3.9-9.6v-45.6h20.6v45.6c0,6.2-.8,12-2.3,17.4-1.6,5.4-3.9,10.1-7.2,14.1-3.2,4-7.3,7.2-12.3,9.5s-10.9,3.5-17.8,3.5-13.2-1.2-18.2-3.6-9.1-5.7-12.3-9.7c-3.1-4.1-5.4-8.8-6.9-14.1-1.5-5.4-2.2-11-2.2-16.8v-45.6h20.6v45.6c0,3.4.3,6.7,1,9.8.7,3.1,1.8,5.9,3.3,8.3s3.5,4.4,5.8,5.8c2.4,1.4,5.3,2.1,8.9,2.1v-.3h.1Z"/>
      </g>
      <g>
        <path d="M571.4,140.7V51.4h38.1c4.3,0,8.2.9,11.8,2.6,3.6,1.8,6.6,4.1,9.2,6.9,2.6,2.9,4.6,6.1,6,9.7,1.5,3.6,2.2,7.3,2.2,10.9s-.7,7.7-2.1,11.3c-1.4,3.6-3.3,6.8-5.8,9.7-2.5,2.9-5.5,5.1-9,6.8-3.5,1.7-7.4,2.5-11.7,2.5h-18.1v28.8h-20.6ZM592,93.9h16.8c2.4,0,4.5-1,6.3-3.1s2.6-5.2,2.6-9.2-.3-3.9-.8-5.4-1.3-2.8-2.2-3.8-2-1.7-3.1-2.2c-1.2-.5-2.3-.7-3.5-.7h-16.1v24.4h0Z"/>
        <path d="M706.4,122.6v18.1h-62.7V51.4h61.6v18.1h-41v17.4h35.2v16.7h-35.2v19h42.1Z"/>
        <path d="M785,69.5h-27.2v71.2h-20.6v-71.2h-27.3v-18.1h75.1v18.1Z"/>
      </g>
    </g>
  </g>
</svg>