<?xml version="1.0" encoding="UTF-8"?>
<svg id="Camada_2" xmlns="http://www.w3.org/2000/svg" version="1.1" viewBox="0 0 221.6 221.5">
  <!-- Generator: Adobe Illustrator 29.3.1, SVG Export Plug-In . SVG Version: 2.1.0 Build 151)  -->
  <defs>
    <style>
      .st0 {
        fill: #ff5b2e;
      }

      .st1 {
        fill: #fff;
      }
    </style>
  </defs>
  <g id="Camada_1-2">
    <path class="st1" d="M51.7.9c38.2,1.4,78.4-2.3,116.4-.2,28.5,1.6,50.6,23.4,52.7,51.8-1.9,38.1,2.5,78.7,0,116.5-1.9,27.9-24,49.8-51.8,51.8-38.1-1.9-78.7,2.5-116.5,0-27.8-1.9-49.9-24-51.8-51.8-2.5-37.7,1.9-78.1,0-116C2.5,25.3,24,3,51.7.9Z"/>
  </g>
  <g>
    <path class="st0" d="M49.5,161.7c7.6,5.1,17.2,8.8,26.3,9.9,1.3,0,5.2,1.2,5.7,0,1-2.5,1.3-5.2,3.5-7.2,3.7-3.2,9.4,0,13.8-4.9,4-4.2,5.4-10.3,5.1-15.8,0-.5-.3-1.9-.5-2.4-.7-.8-2,0-2.7,0-7.6-1-6.6-4-10.6-8.9-4-4.7-9.9-7.4-16-8.1-.8,0-2.4.5-2.9,0-.5-3.7-2.2-7.8-2.5-11.5,0-.8,0-4.7-.3-4.7-2.7,1.5-5.1,2.9-7.4,4.9-11.6,10.8-12.1,22.4-16.5,36.6-.5,1.3-1.5,3.9-1,6.2.7,2.5,5.1,5.4,6.1,6.1h0v-.2ZM85,135.9c1.3.3,2.2,1.5,1.9,2.9-.3,1.3-1.5,2.2-2.9,1.9s-4.5-1.5-4.2-2.9c.3-1.3,3.9-2.2,5.2-1.9Z"/>
    <path class="st0" d="M218.5,111.3c0-59.3-48.4-107.7-107.7-107.7S3.1,52,3.1,111.3s98.2,145.9,107.7,152.3c20.9-17.2,91.3-65.9,106-133.4,1.2-6.2,1.7-12.6,1.7-18.9h0ZM110.8,25.5c47.3,0,87.1,38.4,85.8,85.8-1.3,47.3-14.5,51.6-21.1,56.1-6.1-4.4-12.1-8.8-17.9-13.6-4.5-3.9-8.8-8.3-13-12.5-6.9-7.1-26.6-26.1-9.1-33,9.9-3.9,22.1-1.2,31.3-6.2,8.1-4.4,10.8-13.1,11.8-21.9,0-1.5-.7-2.9-2.2-3.4-7.6-2.5-15.5-4.7-22.7-8.1-1.5-2.9-2-6.4-3.5-9.4-6.1-12.6-20.4-16.5-33.2-17.9-3.5-.3-7.1-.7-10.8-.5-3.4,0-6.7.7-9.4,2.7-1.9,1.3-3.5,3-5.2,4.4-1.9,1.3-3.7,2.5-5.4,3.9-4.7,3.9-8.8,8.8-9.4,15.2-.5,4.7,3.9,8.8,6.4,12.5,4.2,6.4,11.1,20.1,20.6,12.3,7.1-5.7,5.2-15.8,7.8-23.9.5-1.7,1.7-4,3.2-4.7-.7,2.4-1.5,4.9-1.9,7.4-1,7.6.8,18.7-5.6,24.1-14.7,12.3-23.4-4.7-31.3-13.3-.3-.3-.7-.8-1.2-.8s-2,4.2-2.2,4.7c-.8,1.5-1.7,2.9-2.5,4.4-.8,1.3-1.7,2.7-2.5,3.9-.5.8-1.2,1.3-1.7,2.2-.5,1.2-.5,2.5-.2,3.7.3,1.5,2,2.4,3.4,1.5.8-.5,1.5-1,2.2-1.3.8-.3,1.5-.8,2.4-1.2h.7v.5c-.5,3.7-1,7.2-1,11s.7,8.9,1.5,9.9c2.5.7,5.2.7,7.9,1.5,8.3,2.9,8.4,7.6,13.8,12.5,2.9,2.7,6.6.5,8.9,1.5l.7.3c1.5,1.3,1,4,1.3,5.7.5,4.4.7,8.9-.7,13.1-1.7,5.7-6.2,11.1-12.1,12.3-2.2.5-5.4,0-6.9,1.2-2.7,2.4.3,2.5,2,3.5,3.4,2,4.2,6.2,2.9,10.1-.7,1.9-1.5,4-2.7,5.4-1.3,1.3-2.4,1.5-4,.8-.3,0-.7-.3-.8-.7-1.9-4,5.7-11.3.3-12-3-.5-3.5,2.4-6.7,2.2-11-.3-25.1-3.5-33.5-11-14.7-13-20.4-34.4-20.4-55.4,0-47.3,38.4-85.8,85.8-85.8h0l.3.3h0ZM133.5,64.3c0-.8,4.5-1.7,5.2-1.7,2.4,0,2,4.4.8,4.9-.7.3-5.1-2.5-5.9-3.2h-.2Z"/>
  </g>
</svg>