<?xml version="1.0" encoding="UTF-8"?>
<svg id="Camada_2" data-name="Camada 2" xmlns="http://www.w3.org/2000/svg" viewBox="0 0 550.44 176.06">
  <g id="Camada_2-2" data-name="Camada 2">
    <g>
      <path d="M0,134.06c0-.8.13-1.61.27-2.41L13,55.38c1.07-6.17,5.36-10.05,11.53-10.05s10.32,3.89,11.39,10.05l12.73,76.26c.13.8.13,1.47.13,2.14,0,4.56-2.41,7.51-6.7,7.51s-6.97-2.81-7.64-7.1l-1.74-12.33v.27H15.15l-1.74,12.33c-.67,4.69-3.22,6.83-6.97,6.83-3.49,0-6.43-2.28-6.43-7.24ZM30.96,109.4l-6.97-47.72h-.27l-6.84,47.72h14.07Z"/>
      <path d="M55.62,118.78v-50.4c0-14.47,7.51-23.05,21.71-23.05s21.71,8.58,21.71,23.05v3.75c0,4.15-2.81,6.97-6.97,6.97s-6.97-2.81-6.97-6.97v-4.69c0-6.17-2.95-8.71-7.37-8.71s-7.37,2.55-7.37,8.71v52.41c0,6.17,2.95,8.58,7.37,8.58s7.37-2.41,7.37-8.58v-8.18c0-4.15,2.81-6.97,6.97-6.97s6.97,2.68,6.97,6.97v7.1c0,14.48-7.51,23.05-21.71,23.05s-21.71-8.58-21.71-23.05Z"/>
      <path d="M107.9,133.93V53.24c0-4.29,3.08-7.37,7.37-7.37s7.37,3.08,7.37,7.37v31.63h15.82v-31.63c0-4.29,3.08-7.37,7.37-7.37s7.37,3.08,7.37,7.37v80.69c0,4.29-3.08,7.37-7.37,7.37s-7.37-3.08-7.37-7.37v-35.65h-15.82v35.65c0,4.29-3.08,7.37-7.37,7.37s-7.37-3.08-7.37-7.37Z"/>
      <path d="M163.12,118.25v-49.32c0-15.01,7.91-23.59,22.38-23.59s22.38,8.58,22.38,23.59v49.32c0,15.01-7.91,23.59-22.38,23.59s-22.38-8.58-22.38-23.59ZM193.14,119.18v-51.2c0-6.7-2.95-9.25-7.64-9.25s-7.64,2.55-7.64,9.25v51.2c0,6.7,2.95,9.25,7.64,9.25s7.64-2.55,7.64-9.25Z"/>
      <path d="M217.27,118.25V53.24c0-4.69,2.68-7.37,7.37-7.37s7.37,2.68,7.37,7.37v66.08c0,6.7,2.81,9.11,7.51,9.11s7.51-2.41,7.51-9.11V52.97c0-4.56,2.55-7.1,7.1-7.1s7.1,2.55,7.1,7.1v65.27c0,15.01-7.51,23.59-21.98,23.59s-21.98-8.58-21.98-23.59Z"/>
    </g>
    <g>
      <path d="M407.56,133.53V53.64c0-4.69,2.68-7.37,7.37-7.37h14.34c14.74,0,21.98,8.18,21.98,23.19v9.25c0,15.01-7.24,23.19-21.98,23.19h-6.97v31.63c0,4.69-2.68,7.37-7.37,7.37s-7.37-2.68-7.37-7.37ZM429.28,88.49c4.69,0,7.24-2.14,7.24-8.85v-11.12c0-6.7-2.55-8.85-7.24-8.85h-6.97v28.82h6.97Z"/>
      <path d="M459.3,132.72V53.64c0-4.29,3.08-7.37,7.37-7.37h26.94c3.89,0,6.7,2.81,6.7,6.7s-2.81,6.7-6.7,6.7h-19.57v24.8h14.34c3.89,0,6.7,2.81,6.7,6.7s-2.81,6.7-6.7,6.7h-14.34v28.82h19.57c3.89,0,6.7,2.81,6.7,6.7s-2.81,6.7-6.7,6.7h-26.94c-4.29,0-7.37-3.08-7.37-7.37Z"/>
      <path d="M519.48,133.53V59.67h-9.52c-4.29,0-6.7-2.41-6.7-6.7s2.41-6.7,6.7-6.7h33.78c4.29,0,6.7,2.41,6.7,6.7s-2.41,6.7-6.7,6.7h-9.52v73.85c0,4.69-2.68,7.37-7.37,7.37s-7.37-2.68-7.37-7.37Z"/>
    </g>
    <g>
      <path d="M297.95,93.84c4.5,3,10.16,5.23,15.56,5.94.77.1,3.13.72,3.43-.07.58-1.51.75-3.09,2.14-4.31,2.21-1.94,5.57-.12,8.2-2.88,2.37-2.49,3.25-6.07,2.96-9.39-.03-.32-.18-1.11-.33-1.39-.38-.5-1.19-.08-1.63-.13-4.52-.56-3.89-2.45-6.28-5.29-2.38-2.83-5.85-4.36-9.52-4.75-.52-.06-1.35.26-1.66-.02-.33-2.24-1.27-4.61-1.54-6.82-.06-.51.02-2.79-.17-2.83-1.62.91-3.02,1.66-4.4,2.95-6.88,6.44-7.17,13.27-9.82,21.74-.26.83-.94,2.26-.59,3.68.38,1.54,2.99,3.15,3.65,3.59ZM319.13,78.54c.78.16,1.29.92,1.14,1.7-.16.78-.92,1.29-1.7,1.14-.78-.16-2.67-.92-2.52-1.7.16-.78,2.3-1.29,3.08-1.14Z"/>
      <path d="M398.31,63.91c0-35.24-28.67-63.91-63.91-63.91s-63.91,28.67-63.91,63.91c0,12.62,4.55,24.49,10.43,35.48s12.33,21.17,19.02,31.37c9.89,15.07,20.32,29.86,31.33,44.15.29.38.57.79.9,1.15,9.63-10.92,18.78-22.31,27.49-33.98,8.1-10.86,15.27-22.37,22.31-33.94,6.5-10.69,13.11-20.38,15.36-32.99.66-3.7.99-7.47.99-11.23ZM334.4,13c28.07,0,50.91,22.84,50.91,50.91,0,12.73-4.71,24.37-12.46,33.31-3.63-2.6-7.22-5.24-10.56-8.13-2.72-2.34-5.17-4.87-7.67-7.45-4.08-4.22-15.84-15.54-5.35-19.56,5.91-2.26,13.09-.69,18.6-3.7,4.81-2.63,6.41-7.84,7.04-12.98.11-.88-.42-1.72-1.26-1.99-4.54-1.5-9.18-2.79-13.53-4.82-.87-1.74-1.24-3.83-2.09-5.62-3.57-7.5-12.11-9.81-19.69-10.61-2.11-.22-4.24-.36-6.36-.26-1.95.08-3.98.39-5.57,1.61-1.08.82-2.07,1.75-3.15,2.57-1.06.8-2.2,1.47-3.23,2.31-2.82,2.31-5.21,5.23-5.57,8.98-.27,2.79,2.34,5.19,3.82,7.42,2.55,3.83,6.64,11.86,12.24,7.34,4.16-3.36,3.13-9.43,4.59-14.17.3-.97,1.02-2.36,1.94-2.84-.42,1.44-.87,2.89-1.06,4.39-.59,4.49.53,11.08-3.34,14.32-8.71,7.28-13.9-2.8-18.61-7.86-.2-.22-.39-.5-.71-.54-.1-.01-1.21,2.5-1.34,2.75-.47.88-.96,1.74-1.48,2.6-.48.79-.98,1.58-1.49,2.35-.3.46-.72.84-.96,1.34-.33.69-.29,1.46-.14,2.22.19.93,1.24,1.39,2.05.89.45-.28.89-.57,1.33-.82.45-.25.9-.51,1.39-.68.12-.04.26-.07.35.01.09.08.08.21.06.33-.28,2.15-.64,4.31-.64,6.49.04,1.04.37,5.35.94,5.92,1.52.36,3.15.4,4.69.94,4.93,1.72,5,4.53,8.17,7.45,1.69,1.56,3.9.35,5.27.95l.38.15c.92.77.64,2.45.75,3.45.28,2.56.39,5.26-.36,7.75-1.01,3.38-3.67,6.55-7.2,7.32-1.28.28-3.16-.08-4.09.73-1.57,1.37.24,1.47,1.23,2.1,1.96,1.25,2.48,3.71,1.74,5.98-.35,1.06-.9,2.43-1.64,3.17-.79.78-1.38.89-2.41.48-.25-.1-.44-.23-.52-.42-1.08-2.43,3.38-6.65.17-7.1-1.84-.26-2.12,1.41-4.02,1.34-6.55-.25-14.34-2.86-19.94-6.48-7.54-8.88-12.1-20.36-12.1-32.9,0-28.07,22.84-50.91,50.91-50.91ZM347.86,36c.02-.47,2.67-1.03,3.09-1,1.37.1,1.16,2.6.45,2.91-.43.19-3-1.48-3.54-1.89,0,0,0,0,0-.01Z"/>
    </g>
  </g>
</svg>